<svg width="128" height="128" viewBox="0 0 128 128" fill="none" xmlns="http://www.w3.org/2000/svg">
<path d="M63.995 16.2717L58.2352 13.7114L56.563 17.4693L61.9306 19.8645V25.7492H66.0595V19.8645L71.427 17.4693L69.7548 13.7114L63.995 16.2717Z" fill="#4EB7D6"/>
<path d="M63.9963 104.95L58.6906 101.998L56.6675 105.59L61.9318 108.522V114.531H66.0607V108.522L71.3251 105.59L69.3226 101.998L63.9963 104.95Z" fill="#4EB7D6"/>
<path d="M126.968 51.8206L108.388 41.4966L101.926 38.2549L100.068 41.9509L103.041 43.4375L88.7755 51.2837L83.2841 48.5375L81.426 52.2335L86.711 54.8971V70.9199L83.2428 69.1855L81.3848 72.8814L84.1511 74.2648L81.3848 75.6482L83.2428 79.3442L88.7755 76.5981L102.938 84.5888L99.9648 86.0754L101.823 89.7714L105.291 87.9338V91.8156H109.42V85.807L126.947 76.0612C127.266 75.882 127.532 75.6212 127.717 75.3055C127.902 74.9898 127.999 74.6307 128 74.2648V53.6169C128.002 53.2531 127.907 52.8953 127.726 52.5798C127.544 52.2645 127.283 52.0025 126.968 51.8206ZM123.871 73.0466L109.42 81.0786V77.362H105.291V81.0786L90.84 73.0466V57.1271L94.0811 58.9441L96.1456 55.3307L93.0283 53.6169L107.356 45.6468L115.613 50.272L121.807 53.6169L118.71 55.3307L120.775 58.9441L123.871 57.1271V73.0466Z" fill="#4EB7D6"/>
<path d="M107.35 61.5899L102.024 58.6372L100.021 62.2506L105.285 65.1619V71.1705H109.414V65.1619L114.679 62.2506L112.676 58.6372L107.35 61.5899Z" fill="#4EB7D6"/>
<path d="M39.2246 76.5998L44.716 79.346L46.574 75.65L43.849 74.2666L46.6153 72.8832L44.7573 69.1872L41.289 70.9216V54.8988L46.6153 52.2353L44.7573 48.5393L39.2246 51.2855L25.0212 43.398L27.994 41.9113L26.136 38.2153L19.6742 41.4571L1.09422 51.781C0.761467 51.9582 0.483571 52.2231 0.290689 52.547C0.0978074 52.871 -0.00271077 53.2416 5.55969e-05 53.6187V74.2666C0.000674933 74.6325 0.0985094 74.9915 0.283505 75.3072C0.468501 75.6227 0.73403 75.8835 1.05293 76.0629L18.5801 85.8088V91.8173H22.709V87.9355L26.1773 89.6699L28.0353 85.9739L25.0624 84.5905L39.2246 76.5998ZM18.5801 77.3638V81.0804L4.12896 73.0484V57.1288L7.37015 58.9458L9.4346 55.3324L6.31728 53.6187L20.6445 45.6486L28.9023 50.2737L35.0957 53.6187L31.999 55.3324L34.0635 58.9458L37.1601 57.1288V73.0484L22.709 81.0804V77.3638H18.5801Z" fill="#4EB7D6"/>
<path d="M22.7109 65.1619L27.9546 62.2506L25.9521 58.6372L20.6465 61.5899L15.3409 58.6372L13.3384 62.2506L18.582 65.1619V71.1705H22.7109V65.1619Z" fill="#4EB7D6"/>
<path d="M22.709 95.9482H18.5801V103.175C18.5813 103.556 18.6878 103.93 18.8883 104.254C19.0888 104.579 19.3751 104.841 19.7155 105.013L26.1773 108.254L28.0353 104.558L22.709 101.895V95.9482Z" fill="#4EB7D6"/>
<path d="M89.9729 95.5951L88.1149 91.8992L82.5821 94.6453L68.3787 86.7578L71.3515 85.2712L69.4935 81.5752L64.0021 84.342L58.4693 81.5752L56.6113 85.2712L59.5841 86.7578L45.422 94.6453L39.9305 91.8992L38.0725 95.5951L43.3575 98.2587V112.217L39.8893 110.482L38.0312 114.178L44.4723 117.399L63.0524 127.723C63.3662 127.904 63.7221 128 64.0846 128C64.447 128 64.8031 127.904 65.1169 127.723L83.6969 117.399L90.138 114.178L88.28 110.482L84.6466 112.217V98.2587L89.9729 95.5951ZM80.5177 114.343L66.0665 122.375V118.659H61.9376V122.375L47.4864 114.343V100.489L50.7276 102.306L52.7921 98.6923L49.6748 96.9785L64.0021 89.0084L72.2599 93.6336L78.4532 96.9785L75.3566 98.6923L77.421 102.306L80.5177 100.489V114.343Z" fill="#4EB7D6"/>
<path d="M105.291 101.895L99.9648 104.558L101.823 108.254L108.285 105.013C108.625 104.841 108.911 104.579 109.112 104.254C109.312 103.93 109.419 103.556 109.42 103.175V95.9482H105.291V101.895Z" fill="#4EB7D6"/>
<path d="M88.1149 35.9851L89.9729 32.2891L84.6466 29.6255V10.2577C84.6476 9.88626 84.5483 9.52143 84.3594 9.20166C84.1705 8.88186 83.8988 8.61897 83.5731 8.44068H83.4079L64.8278 0.181516C64.5617 0.0618613 64.2731 0 63.9814 0C63.6895 0 63.4011 0.0618613 63.135 0.181516L44.5549 8.44068C44.206 8.60202 43.909 8.8576 43.6973 9.17862C43.4859 9.49965 43.3681 9.87338 43.3575 10.2577V29.6255L38.0312 32.2891L39.8893 35.9851L45.422 33.2389L59.5841 41.2296L56.6113 42.7163L58.4693 46.4123L61.9376 44.5746V48.4564C61.9376 49.004 62.155 49.5291 62.5423 49.9164C62.9294 50.3036 63.4546 50.5212 64.0021 50.5212C64.5496 50.5212 65.0745 50.3036 65.4618 49.9164C65.8489 49.5291 66.0665 49.004 66.0665 48.4564V44.5746L69.5348 46.309L71.3928 42.6131L68.42 41.2296L82.5821 33.2389L88.1149 35.9851ZM80.5177 29.6875L66.0665 37.7195V34.0029H61.9376V37.7195L47.4864 29.6875V13.4375L51.1818 15.0893L52.854 11.3107L50.5005 10.2577L64.0021 4.24915L72.4457 8.00707L77.5036 10.2577L75.1501 11.3107L76.8223 15.0893L80.5177 13.4375V29.6875Z" fill="#4EB7D6"/>
<path d="M61.9376 54.6528V60.5994L56.6113 63.263L58.4693 66.959L64.0021 64.1922L69.5348 66.959L71.3928 63.263L66.0665 60.5994V54.6528H61.9376Z" fill="#4EB7D6"/>
</svg>
